<svg width="16" height="16" viewBox="0 0 16 16" fill="none" xmlns="http://www.w3.org/2000/svg">
<rect width="16" height="16" rx="2" fill="#194276"/>
<path d="M13.8359 4.01278L8.07591 2.01282C8.02663 1.99573 7.97337 1.99573 7.92409 2.01282L2.16409 4.01278C2.16066 4.01397 2.1576 4.01578 2.15425 4.01713C2.14912 4.01919 2.14416 4.02138 2.13919 4.02378C2.13063 4.02796 2.12232 4.03267 2.11429 4.03786C2.11026 4.04047 2.10614 4.04287 2.10226 4.04571C2.09214 4.05311 2.08259 4.06133 2.07368 4.07027C2.07247 4.07149 2.07106 4.07248 2.06987 4.07374C2.06003 4.08414 2.05108 4.09543 2.04314 4.10747C2.04069 4.11113 2.03872 4.11509 2.03646 4.11889C2.03123 4.12759 2.02653 4.13662 2.02237 4.14592C2.0202 4.15082 2.01828 4.15578 2.01642 4.16083C2.01297 4.17031 2.01009 4.17999 2.00778 4.18984C2.00662 4.19466 2.00531 4.19936 2.00443 4.20429C2.0016 4.21934 2.00012 4.23462 2 4.24996V9.24986C2 9.31616 2.02529 9.37975 2.07029 9.42663C2.1153 9.47351 2.17635 9.49985 2.24 9.49985C2.30365 9.49985 2.3647 9.47351 2.40971 9.42663C2.45471 9.37975 2.48 9.31616 2.48 9.24986V4.59683L5.11251 5.51087C4.78788 5.96492 4.56619 6.48967 4.46408 7.04573C4.36197 7.60179 4.3821 8.17471 4.52295 8.72151C4.66381 9.26831 4.92172 9.77477 5.27735 10.2029C5.63298 10.631 6.07708 10.9697 6.57632 11.1935C5.25764 11.5589 4.11611 12.4211 3.37288 13.6132C3.35562 13.6407 3.34372 13.6715 3.33788 13.7037C3.33204 13.736 3.33237 13.7692 3.33885 13.8014C3.34533 13.8335 3.35784 13.864 3.37565 13.8912C3.39346 13.9183 3.41623 13.9415 3.44265 13.9594C3.46908 13.9774 3.49864 13.9897 3.52965 13.9957C3.56066 14.0018 3.5925 14.0014 3.62337 13.9946C3.65423 13.9878 3.68351 13.9747 3.70952 13.9561C3.73553 13.9375 3.75776 13.9138 3.77495 13.8862C4.23283 13.1536 4.85908 12.5515 5.59688 12.1348C6.33469 11.7181 7.1607 11.4998 7.99999 11.4998C8.83928 11.4998 9.66529 11.7181 10.4031 12.1348C11.1409 12.5515 11.7671 13.1536 12.225 13.8862C12.2422 13.9138 12.2645 13.9375 12.2905 13.9561C12.3165 13.9747 12.3457 13.9878 12.3766 13.9946C12.4075 14.0014 12.4393 14.0018 12.4703 13.9957C12.5013 13.9897 12.5309 13.9774 12.5573 13.9594C12.5837 13.9415 12.6065 13.9183 12.6243 13.8912C12.6421 13.864 12.6546 13.8335 12.6611 13.8014C12.6676 13.7692 12.6679 13.736 12.6621 13.7037C12.6563 13.6715 12.6444 13.6407 12.6271 13.6132C11.8839 12.4211 10.7424 11.5589 9.42368 11.1935C9.92292 10.9697 10.367 10.631 10.7227 10.2029C11.0783 9.77477 11.3362 9.26831 11.477 8.72151C11.6179 8.17471 11.638 7.60179 11.5359 7.04573C11.4338 6.48967 11.2121 5.96492 10.8875 5.51087L13.8359 4.48713C13.8837 4.47054 13.9253 4.4387 13.9547 4.39613C13.9842 4.35356 14 4.30242 14 4.24996C14 4.19749 13.9842 4.14635 13.9547 4.10378C13.9253 4.06121 13.8837 4.02938 13.8359 4.01278ZM11.12 7.74989C11.12 8.27138 10.9996 8.78522 10.7688 9.24801C10.538 9.71081 10.2037 10.109 9.79415 10.4088C9.38456 10.7087 8.91171 10.9015 8.41553 10.971C7.91934 11.0404 7.4144 10.9845 6.94334 10.8079C6.47228 10.6313 6.04894 10.3392 5.70908 9.95624C5.36921 9.57333 5.1228 9.11084 4.99065 8.60784C4.8585 8.10484 4.8445 7.5761 4.94983 7.06628C5.05515 6.55646 5.27671 6.08052 5.5958 5.67867L7.92409 6.48709C7.97337 6.50418 8.02663 6.50418 8.07591 6.48709L10.4042 5.67867C10.8675 6.26093 11.1207 6.99363 11.12 7.74989ZM10.4004 5.15292L10.3996 5.1532L8 5.98637L2.99894 4.24996L8 2.51354L13.0011 4.24996L10.4004 5.15292Z" fill="#C5D9FF" stroke="#C5D9FF"/>
</svg>
